<svg xmlns="http://www.w3.org/2000/svg" width="1280" height="360" viewBox="0 0 1280 360" role="img" aria-label="Virtual PBF Workbench icon banner">
  <defs>
    <linearGradient id="bg" x1="120" y1="22" x2="1110" y2="356" gradientUnits="userSpaceOnUse">
      <stop offset="0" stop-color="#0f172a"/>
      <stop offset="0.58" stop-color="#1e3a5f"/>
      <stop offset="1" stop-color="#0b7285"/>
    </linearGradient>
    <linearGradient id="melt" x1="420" y1="204" x2="910" y2="300" gradientUnits="userSpaceOnUse">
      <stop offset="0" stop-color="#fbbf24"/>
      <stop offset="0.55" stop-color="#f97316"/>
      <stop offset="1" stop-color="#ef4444"/>
    </linearGradient>
    <linearGradient id="cubeTop" x1="420" y1="64" x2="790" y2="168" gradientUnits="userSpaceOnUse">
      <stop offset="0" stop-color="#e0f2fe"/>
      <stop offset="1" stop-color="#38bdf8"/>
    </linearGradient>
    <linearGradient id="cubeSide" x1="612" y1="140" x2="920" y2="244" gradientUnits="userSpaceOnUse">
      <stop offset="0" stop-color="#22d3ee"/>
      <stop offset="1" stop-color="#2563eb"/>
    </linearGradient>
    <linearGradient id="meltSoft" x1="0" y1="260" x2="1280" y2="316" gradientUnits="userSpaceOnUse">
      <stop offset="0" stop-color="#fbbf24" stop-opacity="0"/>
      <stop offset="0.18" stop-color="#fbbf24" stop-opacity="0.48"/>
      <stop offset="0.52" stop-color="#f97316" stop-opacity="0.58"/>
      <stop offset="0.82" stop-color="#ef4444" stop-opacity="0.45"/>
      <stop offset="1" stop-color="#ef4444" stop-opacity="0"/>
    </linearGradient>
    <radialGradient id="glow" cx="50%" cy="48%" r="54%">
      <stop offset="0" stop-color="#7dd3fc" stop-opacity="0.35"/>
      <stop offset="0.42" stop-color="#0ea5e9" stop-opacity="0.12"/>
      <stop offset="1" stop-color="#020617" stop-opacity="0"/>
    </radialGradient>
    <filter id="softShadow" x="-20%" y="-20%" width="140%" height="150%">
      <feDropShadow dx="0" dy="18" stdDeviation="18" flood-color="#020617" flood-opacity="0.38"/>
    </filter>
    <filter id="wideShadow" x="-20%" y="-80%" width="140%" height="260%">
      <feDropShadow dx="0" dy="24" stdDeviation="22" flood-color="#020617" flood-opacity="0.35"/>
    </filter>
  </defs>

  <rect width="1280" height="360" rx="42" fill="url(#bg)"/>
  <rect width="1280" height="360" rx="42" fill="url(#glow)"/>

  <path d="M0 260C146 218 250 292 384 244C530 191 606 135 780 158C930 178 1042 254 1280 185V360H0Z" fill="#0f172a" opacity="0.22"/>
  <path d="M0 305C184 260 287 326 463 285C638 244 733 214 916 242C1051 263 1133 305 1280 276V360H0Z" fill="#020617" opacity="0.22"/>

  <g filter="url(#wideShadow)">
    <path d="M226 250c0-57 180-103 402-103s402 46 402 103-180 103-402 103-402-46-402-103z" fill="#0f172a" opacity="0.35"/>
    <path d="M96 287c116-74 280-111 493-111 230 0 424 46 550 122-82 40-261 64-504 64-247 0-440-28-539-75z" fill="url(#meltSoft)"/>
  </g>

  <g transform="translate(370 35)" filter="url(#softShadow)">
    <path d="M0 224c91-52 224-82 400-82 188 0 346 38 449 91-67 70-219 112-429 112-204 0-366-44-420-121z" fill="url(#melt)"/>
    <path d="M84 226c67-28 178-48 315-48 150 0 276 24 354 56-64 41-183 67-340 67-160 0-277-27-329-75z" fill="#fed7aa" opacity="0.28"/>

    <path d="M165 91l266-82 271 82-271 82-266-82z" fill="url(#cubeTop)"/>
    <path d="M165 91l266 82v150L165 242V91z" fill="#0891b2"/>
    <path d="M431 173l271-82v151l-271 81V173z" fill="url(#cubeSide)"/>

    <path d="M237 166l121 37v72l-121-37v-72z" fill="#67e8f9" opacity="0.72"/>
    <path d="M512 206l120-37v74l-120 37v-74z" fill="#bfdbfe" opacity="0.6"/>

    <circle cx="337" cy="99" r="18" fill="#0f172a"/>
    <circle cx="519" cy="99" r="18" fill="#0f172a"/>
    <path d="M373 132c37 25 73 25 110 0" fill="none" stroke="#0f172a" stroke-width="20" stroke-linecap="round"/>
  </g>

  <path d="M948 35l18 42 42 18-42 18-18 42-18-42-42-18 42-18 18-42z" fill="#fef3c7"/>
  <path d="M232 56l14 31 31 14-31 14-14 31-14-31-31-14 31-14 14-31z" fill="#bae6fd"/>
  <path d="M1058 205l10 23 23 10-23 10-10 23-10-23-23-10 23-10 10-23z" fill="#fde68a" opacity="0.9"/>
  <path d="M166 210l8 18 18 8-18 8-8 18-8-18-18-8 18-8 8-18z" fill="#cffafe" opacity="0.85"/>
</svg>
